PathFileType   4   (X/Y/Z)
DataRate	CameraRate	NumFrames	NumMarkers	Units	OrigDataRate	OrigDataStartFrame	OrigNumFrames
120.0	120.0	4	37	mm	120.0	73	194
Frame#	Time	midhip	hip_r	hip_l	knee_r	knee_l	ankle_r	ankle_l	midasis	asis_r	asis_l	psis_r	psis_l	epicondLat_r	epicondLat_l	epicondMed_r	epicondMed_l	malleolusLat_r	malleolusLat_l	malleolusMedv_r	malleolusMedv_l	neck	subclavicle_r	subclavicle_l	sternalnotch	xyphoidprocess	thighwand_r	thighwand_l	upperleg1_r	upperleg1_l	upperleg2_r	upperleg2_l	shankwand_r	shankwand_l	lowerleg1_r	lowerleg1_l	toe_r	toe_l
 	 	X1	Y1	Z1	X2	Y2	Z2	X3	Y3	Z3	X4	Y4	Z4	X5	Y5	Z5	X6	Y6	Z6	X7	Y7	Z7	X8	Y8	Z8	X9	Y9	Z9	X10	Y10	Z10	X11	Y11	Z11	X12	Y12	Z12	X13	Y13	Z13	X14	Y14	Z14	X15	Y15	Z15	X16	Y16	Z16	X17	Y17	Z17	X18	Y18	Z18	X19	Y19	Z19	X20	Y20	Z20	X21	Y21	Z21	X22	Y22	Z22	X23	Y23	Z23	X24	Y24	Z24	X25	Y25	Z25	X26	Y26	Z26	X27	Y27	Z27	X28	Y28	Z28	X29	Y29	Z29	X30	Y30	Z30	X31	Y31	Z31	X32	Y32	Z32	X33	Y33	Z33	X34	Y34	Z34	X35	Y35	Z35	X36	Y36	Z36	X37	Y37	Z37

	73	0.95000	1039.133	666.839	-205.479	1030.531	672.926	-138.091	1035.972	671.064	-263.788	974.285	370.021	-171.340	1159.185	373.154	-247.616	823.601	70.138	-175.787	1284.671	70.989	-260.899	1089.572	743.937	-199.568	1085.450	745.348	-104.348	1093.694	742.526	-294.787	939.864	764.419	-193.080	944.088	754.478	-244.973	976.363	364.134	-121.227	1156.760	369.447	-297.419	972.192	369.855	-221.069	1172.310	373.336	-187.759	822.219	70.336	-142.316	1274.225	68.091	-293.651	822.490	84.434	-202.297	1275.843	74.701	-231.717	967.218	1116.209	-216.189	1048.155	1069.552	-150.747	1041.617	1065.818	-280.819	1038.892	1056.574	-217.720	1053.120	913.167	-213.588	997.000	444.800	-35.470	1241.389	512.889	-294.257	1034.012	505.816	-96.821	1157.087	544.396	-238.540	1032.769	425.202	-121.193	1183.292	462.281	-224.078	865.387	164.262	-65.831	1314.988	196.541	-307.374	890.675	213.943	-124.954	1240.448	224.269	-277.192	912.259	38.116	-186.704	1374.134	84.148	-271.473
	74	0.95833	1043.757	667.077	-206.395	1035.262	673.095	-138.903	1041.387	671.290	-264.570	977.608	370.265	-171.471	1161.119	372.274	-247.766	824.541	71.573	-175.594	1285.700	69.961	-260.411	1094.893	743.932	-200.010	1090.251	745.300	-104.761	1099.535	742.564	-295.258	944.474	765.092	-194.894	949.576	754.968	-246.103	979.371	364.537	-121.328	1159.034	368.639	-297.591	974.518	369.799	-220.698	1173.255	371.910	-187.994	823.064	71.868	-142.128	1275.423	67.098	-293.220	823.462	85.911	-202.097	1276.520	73.321	-231.251	972.162	1116.217	-217.134	1052.903	1069.693	-151.306	1046.764	1065.822	-281.461	1043.863	1056.713	-218.334	1058.151	913.246	-214.007	999.925	445.288	-35.693	1245.333	511.072	-293.664	1037.642	505.849	-97.119	1161.032	543.229	-238.522	1035.551	424.991	-121.067	1185.863	460.813	-224.015	866.778	165.682	-65.728	1316.730	195.300	-306.730	892.827	215.026	-125.117	1241.662	222.833	-276.800	912.620	38.253	-186.688	1375.407	81.868	-271.005
	75	0.96667	1047.969	667.489	-207.457	1040.012	673.343	-139.764	1046.780	671.623	-265.399	981.006	370.569	-171.642	1163.004	371.570	-247.953	825.573	73.084	-175.393	1286.798	69.186	-259.896	1100.250	743.987	-200.498	1095.118	745.291	-105.214	1105.383	742.682	-295.782	948.846	765.979	-196.885	955.014	755.587	-247.199	982.452	365.005	-121.470	1161.251	367.993	-297.794	977.545	369.648	-220.500	1174.335	370.916	-187.852	823.992	73.488	-141.933	1276.715	66.356	-292.768	824.493	87.398	-201.925	1278.567	72.835	-230.732	977.280	1116.420	-218.123	1057.683	1069.975	-151.896	1052.043	1065.962	-282.097	1048.919	1056.959	-218.954	1063.103	913.456	-214.419	1002.898	445.840	-35.956	1249.187	509.371	-293.130	1041.282	505.952	-97.494	1164.757	542.323	-238.571	1038.644	424.939	-120.979	1188.389	459.648	-223.815	868.222	167.197	-65.627	1318.536	194.308	-306.031	894.932	216.058	-125.229	1243.380	222.358	-276.442	913.017	38.400	-186.685	1376.770	79.792	-270.602
	76	0.97500	1051.828	668.076	-208.644	1044.781	673.671	-140.670	1052.138	672.066	-266.273	984.491	370.932	-171.852	1164.908	371.068	-248.181	826.702	74.675	-175.187	1287.933	68.638	-259.370	1105.626	744.111	-201.034	1100.043	745.329	-105.710	1111.209	742.894	-296.358	953.021	767.046	-198.966	960.395	756.341	-248.245	985.617	365.537	-121.654	1163.472	367.534	-298.035	980.462	369.957	-220.631	1175.051	370.159	-187.863	825.012	75.198	-141.734	1278.069	65.844	-292.312	825.651	88.977	-201.733	1281.242	72.606	-230.156	982.488	1116.868	-219.023	1062.524	1070.382	-152.486	1057.436	1066.252	-282.771	1054.038	1057.328	-219.567	1067.997	913.796	-214.870	1005.929	446.457	-36.259	1252.962	507.845	-292.670	1044.932	506.192	-97.885	1168.243	541.639	-238.742	1041.722	425.063	-121.133	1190.627	458.690	-223.724	869.734	168.809	-65.532	1320.421	193.544	-305.285	896.973	217.167	-125.206	1245.248	222.329	-275.946	913.450	38.555	-186.694	1378.193	77.933	-270.256
